<svg xmlns="http://www.w3.org/2000/svg" width="363" height="72" viewBox="0 0 363 72"><rect width="363" height="72" fill="#211d1d"/><path d="M100.986,105.53c-2.071-3.037-.411-2.862-4.222-2.811s-4.593,1.427-6.205-2.053-3.1-3.619-3.932-3.75a.73.73,0,0,1-.189-.058.08.08,0,0,0-.081,0,4.242,4.242,0,0,1-1.106.342.261.261,0,0,1-.148-.015,18.8,18.8,0,0,0-5.942-.939c-4.013,0-7.9.874-10.508,2.8.108.248.155.422.108.466-.115.1-.708-.6-1.41-1.209-1.632-1.405-3.285-1.791-6.246-2.454-2.57-.575-3.885-.859-4.3-.182-.472.772.29,2.17.661,2.862a8.061,8.061,0,0,0,3.474,3.262c2.118,1.07,3.946.961,3.932,1.158a4.612,4.612,0,0,1-2.563.131,8.273,8.273,0,0,1-3.514-1.384,10.533,10.533,0,0,1-2.941-3.35c-1.059-1.624-1.565-3.219-1.41-3.437.459-.655,1.619-.67,3.271-.583a23.5,23.5,0,0,1,5.335,1.114c3.089.867,3.844,1.231,4.553,2.01a5.148,5.148,0,0,1,.391.481c3.13-2.163,6.725-3.029,11.48-3.029a23.8,23.8,0,0,1,6.515.888,2.809,2.809,0,0,1,.02-.35,22.063,22.063,0,0,0-7.365-8.221c-5.214-3.488-9.841-4.376-13.152-4.289s-10.758,0-8.195.626,6.866,3.219,5.625,3.306-8.107.175-12,2.323a25.6,25.6,0,0,0-7.858,7.508c-.789,1.252-3.764,5.9-4.222,10.988s-1.572,14.476.452,9.161,9.557-7.413,10.589-6.838-5.463,2.905-4.674,18.139,2.563,9.561,5.254,3.845,9.476-6.343,9.928-6.073-1.362,13.581,6.664,19.61-5.908-8.993,8.242-15.336c.459-.2.9-.393,1.329-.575-7.3-.5-13.038-5.556-13.038-11.731a9.736,9.736,0,0,1,.223-2.083c-.007.175-.013.342-.013.517,0,6.626,6.4,12.059,14.548,12.619,11.5-4.267,13.726.561,11.432,2.418-2.482,2.01-2.6,1.7-2.941,1.74s5.295,1.34,8.485-2.767,4.094-6.925,3.764-10.231.331,1.7-2.772,3.037-9.517,2.636-9.267-2.323,3.757-7.733,5.5-8.265c1.808-.553,6.954-1.384,7.2,1.966s.411,3.663,1.241-.087S103.057,108.567,100.986,105.53Zm-13.53-1.384c-1.7-.087-7.655,0-7.655,0s2.981-3.175,6.826-1.784S89.156,104.234,87.456,104.146Z" transform="translate(-30.12 -78.921)" fill="#cbb778"/><g transform="translate(88 4)"><text transform="translate(1 34)" fill="#cbb778" font-size="32" font-family="PingFangSC-Regular, PingFang SC"><tspan x="0" y="0">gaoshijie365.tech</tspan></text><text transform="translate(0 59)" fill="#cbb778" font-size="16" font-family="STSong"><tspan x="0" y="0">— Make a difference and help others! —</tspan></text></g></svg>