<svg xmlns="http://www.w3.org/2000/svg" viewBox="0 0 94.8 94.7"><ellipse cx="47.4" cy="47.3" rx="47.4" ry="47.3" fill="#f56a1f"/><g fill="#fbb03b"><path d="M47.4 94.7c4.3 0 8.5-.6 12.4-1.7l-12-42.3-11.9 42.6c3.7.9 7.5 1.4 11.5 1.4zM92.5 61.9L47.8 50.7l31.3 31.9c6.1-5.6 10.8-12.7 13.4-20.7zM16.4 83.1l31.4-32.4L2.5 62.4c2.7 8.1 7.5 15.2 13.9 20.7z" opacity=".3"/><path d="M.8 38.9l47 11.8-35-35.6C6.7 21.6 2.4 29.8.8 38.9zM82.2 15.2L47.8 50.7l46.2-12c-1.7-9-5.9-17.1-11.8-23.5zM47.4 0c-4.7 0-9.2.7-13.5 2l13.9 48.7L61.2 2.1C56.9.7 52.2 0 47.4 0z" opacity=".3"/></g><path fill="#fbb03b" d="M74 36.8l5.3-3.7-2.3-7.9-8.3-.2-2.1 6.2-19.2-14.4-19 14.3-2.1-6.1-8.3.2-2.3 7.9 5.2 3.6-4.2 3.2 17.2 23.9-2.8 8.8 16.8 12.2 16.8-12.2-3.2-9.8 16.6-22.9z"/><path d="M53 74.7l-5 5-5-5h10zM32.7 54l3.2-3.2 3.2 3.2h-6.4zM56.9 54l3.2-3.2 3.2 3.2h-6.4z" fill="#642a19"/></svg>